<?xml version="1.0" encoding="UTF-8"?>
<svg version="1.1" xmlns="http://www.w3.org/2000/svg" width="242" height="258">
<path d="M0 0 C79.86 0 159.72 0 242 0 C242 85.14 242 170.28 242 258 C162.14 258 82.28 258 0 258 C0 172.86 0 87.72 0 0 Z " fill="#B6E807" transform="translate(0,0)"/>
<path d="M0 0 C79.86 0 159.72 0 242 0 C242 85.14 242 170.28 242 258 C162.14 258 82.28 258 0 258 C0 172.86 0 87.72 0 0 Z M112.4765625 18.640625 C111.38520996 19.21014893 110.29385742 19.77967285 109.16943359 20.36645508 C107.98782381 20.99405508 106.80634943 21.62191007 105.625 22.25 C104.39562826 22.89596572 103.16596962 23.54138567 101.93603516 24.1862793 C93.83427545 28.44601866 85.79712522 32.82108829 77.78271484 37.24267578 C69.35446149 41.86569792 60.80585505 46.24463867 52.25 50.625 C33.49387352 58.77737128 33.49387352 58.77737128 17 70 C16.88677587 71.54436709 16.84262078 73.0938511 16.82591248 74.64227295 C16.81297653 75.6461203 16.80004059 76.64996765 16.78671265 77.68423462 C16.77773956 78.79487274 16.76876648 79.90551086 16.75952148 81.04980469 C16.74652512 82.21234772 16.73352875 83.37489075 16.72013855 84.57266235 C16.60835576 95.30177942 16.54759187 106.03163327 16.50337124 116.76124191 C16.47012786 124.69470592 16.41058008 132.62702814 16.31586021 140.56000209 C16.25153701 146.13541057 16.21783577 151.7105079 16.20662171 157.28627324 C16.19905804 160.61765865 16.17379148 163.94734805 16.12359428 167.27840424 C16.0703523 170.9974148 16.06710449 174.71330847 16.07592773 178.43261719 C16.04873657 179.53515839 16.02154541 180.63769958 15.99353027 181.77365112 C15.93164251 187.28896249 15.93164251 187.28896249 18.72978973 191.76063442 C20.77638485 193.06241266 22.76863837 194.05743302 25 195 C26.06299316 195.57886963 27.12598633 196.15773926 28.22119141 196.75415039 C29.25421387 197.28000732 30.28723633 197.80586426 31.3515625 198.34765625 C32.52058105 198.94634521 33.68959961 199.54503418 34.89404297 200.16186523 C35.50197693 200.47147186 36.10991089 200.78107849 36.73626709 201.10006714 C46.18829732 205.9164943 55.58953078 210.80570644 64.875 215.9375 C75.18773036 221.6302212 85.64599068 227.02664559 96.13037109 232.39428711 C96.76144775 232.71797775 97.39252441 233.0416684 98.04272461 233.37516785 C99.28177505 234.00998762 100.52183149 234.64284812 101.76293945 235.27363586 C106.46726566 237.67852893 111.02104163 240.2986994 115.52856445 243.05322266 C119.52679163 244.58489558 122.59663401 243.58852189 126.44335938 241.9753418 C127.23548828 241.55422119 128.02761719 241.13310059 128.84375 240.69921875 C129.74786621 240.22331299 130.65198242 239.74740723 131.58349609 239.25708008 C132.54594238 238.73911865 133.50838867 238.22115723 134.5 237.6875 C135.5204541 237.14697998 136.5409082 236.60645996 137.59228516 236.04956055 C145.10663391 232.05593281 152.56507096 227.96129195 160.01904297 223.85644531 C168.47519977 219.22778082 177.04519588 214.83082268 185.625 210.4375 C195.14218326 205.56327677 204.63368117 200.66080158 214 195.5 C214.81807129 195.04939209 215.63614258 194.59878418 216.47900391 194.13452148 C219.94848592 192.36013985 219.94848592 192.36013985 223 190 C223.11322413 188.45563291 223.15737922 186.9061489 223.17408752 185.35772705 C223.18702347 184.3538797 223.19995941 183.35003235 223.21328735 182.31576538 C223.22226044 181.20512726 223.23123352 180.09448914 223.24047852 178.95019531 C223.25997307 177.20638077 223.25997307 177.20638077 223.27986145 175.42733765 C223.39164424 164.69822058 223.45240813 153.96836673 223.49662876 143.23875809 C223.52987214 135.30529408 223.58941992 127.37297186 223.68413979 119.43999791 C223.74846299 113.86458943 223.78216423 108.2894921 223.79337829 102.71372676 C223.80094196 99.38234135 223.82620852 96.05265195 223.87640572 92.72159576 C223.9296477 89.0025852 223.93289551 85.28669153 223.92407227 81.56738281 C223.95126343 80.46484161 223.97845459 79.36230042 224.00646973 78.22634888 C224.06811392 72.71475315 224.06811392 72.71475315 221.27666473 68.24259281 C219.2280271 66.9388558 217.23344869 65.94496404 215 65 C213.8764209 64.3908374 212.7528418 63.7816748 211.59521484 63.15405273 C210.47840332 62.58630127 209.3615918 62.0185498 208.2109375 61.43359375 C207.59433258 61.11834244 206.97772766 60.80309113 206.34243774 60.47828674 C205.03189732 59.80827452 203.72063432 59.13967395 202.40869141 58.47241211 C192.5325101 53.44658587 182.69818596 48.36312946 173 43 C162.67295184 37.29349514 152.19544869 31.89270413 141.69335938 26.51757812 C140.42447555 25.86719455 139.15559525 25.21680411 137.88671875 24.56640625 C136.97743118 24.10205673 136.97743118 24.10205673 136.04977417 23.62832642 C131.8970325 21.49660334 127.84006727 19.23827796 123.84301758 16.82788086 C119.44530049 14.85243264 116.39140312 16.58209894 112.4765625 18.640625 Z " fill="#0A0A09" transform="translate(0,0)"/>
<path d="M0 0 C1.18819336 0.63168091 1.18819336 0.63168091 2.40039062 1.27612305 C3.30466797 1.75210937 4.20894531 2.2280957 5.140625 2.71850586 C6.10291016 3.23638672 7.06519531 3.75426758 8.05664062 4.2878418 C9.07564453 4.82763672 10.09464844 5.36743164 11.14453125 5.92358398 C18.7055302 9.94226193 26.21162725 14.06047316 33.71411133 18.18701172 C41.82305765 22.62444111 50.02433628 26.87325741 58.24414062 31.1003418 C58.90910553 31.44241669 59.57407043 31.78449158 60.25918579 32.13693237 C62.87461827 33.48218201 65.49024999 34.82704333 68.10612488 36.1714325 C73.66089158 39.02682628 79.20900455 41.89453774 84.74414062 44.7878418 C85.49719482 45.17794434 86.25024902 45.56804688 87.02612305 45.9699707 C90.46920139 47.77563077 93.4270598 49.62815618 96.55664062 51.9753418 C96.55664062 55.6053418 96.55664062 59.2353418 96.55664062 62.9753418 C67.18664062 62.9753418 37.81664062 62.9753418 7.55664062 62.9753418 C7.22664063 68.5853418 6.89664063 74.1953418 6.55664062 79.9753418 C6.22664063 82.9453418 5.89664063 85.9153418 5.55664062 88.9753418 C18.42664063 88.9753418 31.29664063 88.9753418 44.55664062 88.9753418 C43.15494342 92.47958482 42.16083054 94.81351785 40.12768555 97.79199219 C39.39582787 98.87215355 39.39582787 98.87215355 38.64918518 99.97413635 C37.85120766 101.13682289 37.85120766 101.13682289 37.03710938 102.32299805 C36.47454941 103.15149765 35.91198944 103.97999725 35.3323822 104.83360291 C34.1122691 106.63011158 32.89017106 108.42527342 31.6663208 110.21923828 C28.38020849 115.03785406 25.11082854 119.86778441 21.84179688 124.69799805 C21.16356873 125.69973053 20.48534058 126.70146301 19.78656006 127.73355103 C12.33318995 138.7580305 4.99779583 149.85950179 -2.31835938 160.9753418 C-2.93087555 161.90500763 -3.54339172 162.83467346 -4.17446899 163.79251099 C-10.33366165 173.14281449 -16.48742189 182.49368504 -22.44335938 191.9753418 C-24.14152601 187.86830167 -22.62841586 184.29412353 -21.40039062 180.2644043 C-20.92742531 178.6404341 -20.45702295 177.01571594 -19.98876953 175.39038086 C-19.73645569 174.5175647 -19.48414185 173.64474854 -19.22418213 172.7454834 C-17.83911373 167.83164657 -16.58742326 162.88405763 -15.33007812 157.9362793 C-15.06816681 156.90859436 -14.80625549 155.88090942 -14.53640747 154.82208252 C-13.73292821 151.66524743 -12.93183882 148.50781197 -12.13085938 145.3503418 C-11.57570053 143.16800441 -11.02036305 140.98571246 -10.46484375 138.8034668 C-9.12196766 133.52802511 -7.78273694 128.25167766 -6.44335938 122.9753418 C-19.31335938 122.9753418 -32.18335938 122.9753418 -45.44335938 122.9753418 C-44.06912359 119.53975234 -42.86970193 116.80854599 -41.00976562 113.7097168 C-40.53144287 112.91098145 -40.05312012 112.11224609 -39.56030273 111.28930664 C-39.04733643 110.44319824 -38.53437012 109.59708984 -38.00585938 108.7253418 C-37.47162354 107.83927246 -36.9373877 106.95320313 -36.38696289 106.0402832 C-32.9762002 100.41456307 -29.4702146 94.86367418 -25.88085938 89.3503418 C-20.23973176 80.66170846 -14.84520573 71.81472674 -9.44335938 62.9753418 C-42.44335938 62.9753418 -75.44335938 62.9753418 -109.44335938 62.9753418 C-109.44335938 59.3453418 -109.44335938 55.7153418 -109.44335938 51.9753418 C-106.61440352 49.50790264 -104.78356842 48.45663569 -101.44335938 46.9753418 C-99.32284714 45.86578736 -97.20595488 44.74930005 -95.09179688 43.62768555 C-93.29760556 42.70882713 -91.50335808 41.79007105 -89.70709229 40.87527466 C-80.25506206 36.05884749 -70.85382859 31.16963536 -61.56835938 26.0378418 C-51.25562902 20.34512059 -40.79736869 14.94869621 -30.31298828 9.58105469 C-29.36637329 9.09551872 -29.36637329 9.09551872 -28.40063477 8.60017395 C-27.16158432 7.96535418 -25.92152788 7.33249367 -24.68041992 6.70170593 C-19.97609372 4.29681286 -15.42231775 1.6766424 -10.91479492 -1.07788086 C-6.91656774 -2.60955378 -3.84672536 -1.61318009 0 0 Z " fill="#AEDC0A" transform="translate(126.443359375,18.024658203125)"/>
<path d="M0 0 C0.33 0 0.66 0 1 0 C0.34462144 12.37669826 -0.79511897 24.67281509 -2.0625 37 C-3.0215625 46.405 -3.0215625 46.405 -4 56 C8.87 56 21.74 56 35 56 C33.59830279 59.50424302 32.60418992 61.83817606 30.57104492 64.81665039 C30.0831398 65.53675797 29.59523468 66.25686554 29.09254456 66.99879456 C28.29456703 68.16148109 28.29456703 68.16148109 27.48046875 69.34765625 C26.91790878 70.17615585 26.35534882 71.00465546 25.77574158 71.85826111 C24.55562848 73.65476978 23.33353044 75.44993162 22.10968018 77.24389648 C18.82356786 82.06251226 15.55418791 86.89244261 12.28515625 91.72265625 C11.6069281 92.72438873 10.92869995 93.72612122 10.22991943 94.75820923 C2.77654933 105.7826887 -4.5588448 116.88415999 -11.875 128 C-12.48751617 128.92966583 -13.10003235 129.85933167 -13.73110962 130.81716919 C-19.89030227 140.16747269 -26.04406251 149.51834324 -32 159 C-33.69816664 154.89295988 -32.18505649 151.31878173 -30.95703125 147.2890625 C-30.48406594 145.6650923 -30.01366357 144.04037415 -29.54541016 142.41503906 C-29.29309631 141.5422229 -29.04078247 140.66940674 -28.78082275 139.7701416 C-27.39575435 134.85630477 -26.14406389 129.90871583 -24.88671875 124.9609375 C-24.49385178 123.4194101 -24.49385178 123.4194101 -24.0930481 121.84674072 C-23.28956883 118.68990563 -22.48847945 115.53247018 -21.6875 112.375 C-21.13234115 110.19266261 -20.57700367 108.01037066 -20.02148438 105.828125 C-18.67860829 100.55268331 -17.33937756 95.27633586 -16 90 C-28.87 90 -41.74 90 -55 90 C-53.62576422 86.56441054 -52.42634255 83.83320419 -50.56640625 80.734375 C-50.08824463 79.93588135 -49.61008301 79.1373877 -49.11743164 78.31469727 C-48.6043042 77.46834717 -48.09117676 76.62199707 -47.5625 75.75 C-47.02681396 74.86175537 -46.49112793 73.97351074 -45.93920898 73.05834961 C-42.14063492 66.79414243 -38.21727545 60.62243512 -34.20825195 54.49145508 C-30.08105458 48.1677716 -26.10458336 41.75637117 -22.14160156 35.32885742 C-17.72277317 28.16235695 -13.27486974 21.01446963 -8.8125 13.875 C-8.16442383 12.83722412 -7.51634766 11.79944824 -6.84863281 10.73022461 C-6.2450293 9.76479736 -5.64142578 8.79937012 -5.01953125 7.8046875 C-4.21672729 6.52053955 -4.21672729 6.52053955 -3.39770508 5.21044922 C-2.28956648 3.45794496 -1.15014946 1.7252242 0 0 Z " fill="#0B0C09" transform="translate(136,51)"/>
<path d="M0 0 C2.78150237 1.36682259 5.50982167 2.81187428 8.23876953 4.28076172 C9.73899658 5.0763147 9.73899658 5.0763147 11.26953125 5.88793945 C14.43205602 7.57024413 17.5865146 9.26679897 20.73876953 10.96826172 C21.77549805 11.52707031 22.81222656 12.08587891 23.88037109 12.66162109 C43.8785713 23.46153548 43.8785713 23.46153548 47.73876953 25.96826172 C47.73876953 26.29826172 47.73876953 26.62826172 47.73876953 26.96826172 C12.09876953 26.96826172 -23.54123047 26.96826172 -60.26123047 26.96826172 C-57.37943061 24.08646186 -55.14217605 22.66840728 -51.58154297 20.78076172 C-50.43443848 20.16910156 -49.28733398 19.55744141 -48.10546875 18.92724609 C-46.86598018 18.27376262 -45.62622856 17.62077785 -44.38623047 16.96826172 C-43.12162343 16.2998715 -41.85713863 15.63124995 -40.59277344 14.96240234 C-38.67419043 13.94779976 -36.75527137 12.93387313 -34.83499146 11.92248535 C-30.85030814 9.82119324 -26.89252745 7.67697491 -22.94873047 5.49951172 C-22.00239746 4.98388672 -21.05606445 4.46826172 -20.08105469 3.93701172 C-18.32598331 2.98045171 -16.57719607 2.0122408 -14.8359375 1.03076172 C-9.13434187 -2.03941824 -6.10597073 -2.78598924 0 0 Z " fill="#C6FD01" transform="translate(126.26123046875,18.03173828125)"/>
<path d="M0 0 C0.66 0.33 1.32 0.66 2 1 C3.3680719 1.10315226 4.74091899 1.14642068 6.11282349 1.15821838 C6.97381653 1.1680072 7.83480957 1.17779602 8.72189331 1.18788147 C9.66847809 1.19363693 10.61506287 1.1993924 11.59033203 1.20532227 C12.58548828 1.21522186 13.58064453 1.22512146 14.60595703 1.23532104 C17.90655104 1.26699494 21.20715945 1.29171675 24.5078125 1.31640625 C26.79182314 1.33697069 29.07582992 1.35796702 31.35983276 1.37937927 C37.38007495 1.4346526 43.40035178 1.48403865 49.4206543 1.53222656 C55.56041559 1.58240322 61.70012639 1.63810928 67.83984375 1.69335938 C79.89318606 1.80100528 91.94657216 1.90243593 104 2 C103.02296079 3.8136477 102.04330895 5.62588817 101.0625 7.4375 C100.24458984 8.95150391 100.24458984 8.95150391 99.41015625 10.49609375 C98 13 98 13 97 14 C93.86440114 14.09534958 90.75086387 14.12550879 87.61499023 14.11352539 C86.13710526 14.11374443 86.13710526 14.11374443 84.62936401 14.1139679 C81.35575193 14.11326832 78.08219596 14.10547385 74.80859375 14.09765625 C72.54557832 14.09579223 70.28256249 14.09436825 68.01954651 14.09336853 C62.05021052 14.0895421 56.08089868 14.07971075 50.11157227 14.06866455 C44.02555671 14.05845312 37.93953727 14.05387149 31.85351562 14.04882812 C19.90233311 14.03808859 7.95116856 14.02101068 -4 14 C-4.10815225 12.23050905 -4.18566083 10.45912513 -4.25 8.6875 C-4.29640625 7.70136719 -4.3428125 6.71523437 -4.390625 5.69921875 C-4 3 -4 3 -1.984375 1.14453125 C-1.00210937 0.57798828 -1.00210937 0.57798828 0 0 Z " fill="#AEDC09" transform="translate(21,67)"/>
<path d="M0 0 C0.95658005 -0.00102219 1.9131601 -0.00204437 2.89872742 -0.00309753 C6.05431045 0.00177175 9.20698439 0.05618308 12.36206055 0.11108398 C14.55208251 0.12414249 16.74212495 0.13410546 18.93217468 0.14109802 C24.69158558 0.16780329 30.44975733 0.23654891 36.2086792 0.31402588 C42.08710975 0.38568068 47.96574088 0.41761443 53.84448242 0.45288086 C65.37562531 0.52791588 76.9058492 0.64736135 88.4362793 0.79467773 C88.4362793 4.75467773 88.4362793 8.71467773 88.4362793 12.79467773 C53.7862793 12.79467773 19.1362793 12.79467773 -16.5637207 12.79467773 C-12.77041855 3.31142234 -10.54682001 -0.29545 0 0 Z " fill="#C7FE01" transform="translate(134.563720703125,176.205322265625)"/>
<path d="M0 0 C-0.30769707 1.81332154 -0.62129064 3.62564345 -0.9375 5.4375 C-1.11152344 6.44683594 -1.28554687 7.45617187 -1.46484375 8.49609375 C-2 11 -2 11 -3 12 C-6.1050725 12.09533653 -9.18786458 12.12551126 -12.29321289 12.11352539 C-13.26871597 12.11367142 -14.24421906 12.11381744 -15.24928284 12.1139679 C-18.49042953 12.11326833 -21.73151954 12.10547391 -24.97265625 12.09765625 C-27.21325143 12.09579222 -29.45384702 12.09436825 -31.69444275 12.09336853 C-37.6045951 12.08954213 -43.51472305 12.0797108 -49.42486572 12.06866455 C-55.45055817 12.05845306 -61.47625453 12.05387147 -67.50195312 12.04882812 C-79.33464616 12.03808864 -91.16732106 12.02101076 -103 12 C-103 8.04 -103 4.08 -103 0 C-93.33358962 -0.20214752 -83.66698476 -0.39024183 -74 -0.5625 C-73.28597393 -0.57523327 -72.57194786 -0.58796654 -71.83628464 -0.60108566 C-47.86642474 -1.02306595 -23.95899865 -0.96536486 0 0 Z " fill="#ACD90A" transform="translate(120,141)"/>
<path d="M0 0 C52.47 0.495 52.47 0.495 106 1 C97.24615 9.75385 86.99582642 14.74982384 74.53295898 14.92993164 C70.68305302 14.92000614 66.84326291 14.79713323 62.99609375 14.66015625 C60.93538113 14.62082347 58.8745861 14.58561556 56.81373596 14.55430603 C51.44810122 14.46192209 46.0854236 14.3143912 40.72143555 14.15441895 C35.22448665 14.00055669 29.72657253 13.90014487 24.22851562 13.79492188 C13.48409596 13.58156776 2.7420417 13.30980523 -8 13 C-7.50628906 12.22914063 -7.01257813 11.45828125 -6.50390625 10.6640625 C-5.86324219 9.66117188 -5.22257812 8.65828125 -4.5625 7.625 C-3.92441406 6.62726563 -3.28632812 5.62953125 -2.62890625 4.6015625 C-1.03100789 2.14169479 -1.03100789 2.14169479 0 0 Z " fill="#AEDC0A" transform="translate(117,188)"/>
<path d="M0 0 C33 0 66 0 100 0 C98 11 98 11 97 12 C93.98649762 12.09529612 90.99595894 12.12551904 87.98217773 12.11352539 C87.03593536 12.11367142 86.08969299 12.11381744 85.11477661 12.1139679 C81.97102608 12.11326836 78.82733399 12.10547409 75.68359375 12.09765625 C73.51025932 12.09579221 71.33692448 12.09436824 69.16358948 12.09336853 C63.43098805 12.08954221 57.69841177 12.07971097 51.96582031 12.06866455 C46.12109721 12.05845287 40.27637007 12.05387143 34.43164062 12.04882812 C22.954416 12.0380888 11.47721009 12.02101102 0 12 C0 8.04 0 4.08 0 0 Z " fill="#C7FE01" transform="translate(17,153)"/>
<path d="M0 0 C2.03833676 0.01683373 4.0767105 0.0296223 6.11509705 0.03858948 C11.42107771 0.07257977 16.72475969 0.1606513 22.02984619 0.26092529 C27.46684693 0.3538122 32.90422752 0.39427053 38.34179688 0.43945312 C48.96714323 0.53531417 59.59080069 0.68844998 70.21484375 0.87890625 C68.60859866 5.29608024 66.63052079 8.65147143 64.21484375 12.87890625 C29.89484375 12.87890625 -4.42515625 12.87890625 -39.78515625 12.87890625 C-38.15621656 7.99208719 -33.62334373 6.34309893 -29.29287815 4.01390934 C-19.76591198 -0.63915123 -10.38431677 -0.25581025 0 0 Z " fill="#C7FD01" transform="translate(61.78515625,56.12109375)"/>
<path d="M0 0 C33 0 66 0 100 0 C98 5 98 5 94 12 C62.98 12 31.96 12 0 12 C0 8.04 0 4.08 0 0 Z " fill="#C7FE01" transform="translate(17,81)"/>
<path d="M0 0 C32.01 0 64.02 0 97 0 C95 11 95 11 94 12 C91.07805335 12.09525367 88.17979671 12.12552736 85.25756836 12.11352539 C83.88209587 12.11374443 83.88209587 12.11374443 82.47883606 12.1139679 C79.43248164 12.1132684 76.38618755 12.10547428 73.33984375 12.09765625 C71.23377007 12.0957922 69.12769597 12.09436824 67.0216217 12.09336853 C61.46657117 12.08954231 55.91154659 12.07971114 50.35650635 12.06866455 C44.6927526 12.05845267 39.02899467 12.05387139 33.36523438 12.04882812 C22.24347815 12.03808896 11.12174123 12.0210113 0 12 C0 8.04 0 4.08 0 0 Z " fill="#AEDC09" transform="translate(17,165)"/>
<path d="M0 0 C44.55 0.495 44.55 0.495 90 1 C90 4.96 90 8.92 90 13 C57.66 13 25.32 13 -8 13 C-5.69 9.37 -3.38 5.74 -1 2 C-0.67 1.34 -0.34 0.68 0 0 Z " fill="#AEDC09" transform="translate(133,164)"/>
<path d="M0 0 C31.02 0 62.04 0 94 0 C92 11 92 11 91 12 C88.16959328 12.09520906 85.36365007 12.12553631 82.53295898 12.11352539 C81.64523804 12.11367142 80.75751709 12.11381744 79.84289551 12.1139679 C76.89393716 12.11326843 73.94504113 12.10547448 70.99609375 12.09765625 C68.95728083 12.09579219 66.91846746 12.09436823 64.87965393 12.09336853 C59.50215426 12.08954241 54.12468142 12.07971132 48.74719238 12.06866455 C43.26440799 12.05845245 37.78161928 12.05387134 32.29882812 12.04882812 C21.53254027 12.03808914 10.76627236 12.02101159 0 12 C0 8.04 0 4.08 0 0 Z " fill="#C7FE01" transform="translate(17,177)"/>
<path d="M0 0 C30.69 0 61.38 0 93 0 C87 11 87 11 86 12 C83.32212027 12.09512944 80.67011131 12.12555279 77.99194336 12.11352539 C77.15299026 12.11367142 76.31403717 12.11381744 75.44966125 12.1139679 C72.66302956 12.1132685 69.87646384 12.10547485 67.08984375 12.09765625 C65.16313209 12.09579217 63.23641995 12.09436822 61.30970764 12.09336853 C56.22812603 12.08954259 51.1465728 12.07971166 46.06500244 12.06866455 C40.88383366 12.05845206 35.70266031 12.05387126 30.52148438 12.04882812 C20.34764375 12.03808946 10.17382423 12.02101213 0 12 C0 8.04 0 4.08 0 0 Z " fill="#AEDC0A" transform="translate(17,93)"/>
<path d="M0 0 C29.37 0 58.74 0 89 0 C89 3.96 89 7.92 89 12 C59.3 12 29.6 12 -1 12 C-0.67 8.04 -0.34 4.08 0 0 Z " fill="#C7FE01" transform="translate(134,81)"/>
<path d="M0 0 C0.33 0.66 0.66 1.32 1 2 C2.06044525 1.9830307 3.1208905 1.9660614 4.21347046 1.94857788 C14.19025593 1.79024531 24.16714902 1.64250393 34.14424706 1.50522423 C39.27399768 1.43429854 44.40363621 1.35959671 49.53320312 1.27636719 C54.48029678 1.19623561 59.42744033 1.12588968 64.37477493 1.06242752 C66.26553123 1.03643443 68.15624181 1.00687048 70.04688644 0.97373581 C72.68796532 0.92804974 75.3289193 0.89487909 77.97021484 0.86474609 C78.75783707 0.8482048 79.54545929 0.83166351 80.35694885 0.81462097 C82.23892202 0.79977173 84.12117093 0.89025102 86 1 C88 3 88 3 88 14 C58.63 14 29.26 14 -1 14 C-0.67 9.38 -0.34 4.76 0 0 Z " fill="#AEDC0A" transform="translate(135,67)"/>
<path d="M0 0 C0.80052292 -0.00102219 1.60104584 -0.00204437 2.42582703 -0.00309753 C5.0621904 0.00176538 7.69505535 0.0561373 10.33081055 0.11108398 C12.16210539 0.12414499 13.99342474 0.13410679 15.82475281 0.14109802 C20.6373384 0.16778445 25.44843749 0.23651114 30.26043701 0.31402588 C35.17366425 0.38572296 40.08713248 0.41762329 45.00073242 0.45288086 C54.63615003 0.5278821 64.2704659 0.64730273 73.9050293 0.79467773 C73.9050293 4.75467773 73.9050293 8.71467773 73.9050293 12.79467773 C44.5350293 12.79467773 15.1650293 12.79467773 -15.0949707 12.79467773 C-11.77340637 4.4907669 -9.6943056 -0.32582943 0 0 Z " fill="#C7FE01" transform="translate(149.094970703125,152.205322265625)"/>
<path d="M0 0 C28.05 0 56.1 0 85 0 C81.53956395 8.65109013 81.53956395 8.65109013 78 12 C75.05522396 12.69582882 73.20284092 12.89835606 70.2722168 12.79467773 C69.12995384 12.79621101 69.12995384 12.79621101 67.96461487 12.79777527 C65.4580411 12.79291433 62.95515234 12.73855505 60.44921875 12.68359375 C58.7076059 12.67053196 56.96596726 12.66057053 55.22431946 12.65357971 C50.64843268 12.62689917 46.07411046 12.55817851 41.49884033 12.48065186 C36.82691615 12.40894151 32.15473821 12.37705168 27.48242188 12.34179688 C18.32092854 12.2668062 9.16059455 12.14739343 0 12 C0 8.04 0 4.08 0 0 Z " fill="#C7FE01" transform="translate(17,105)"/>
<path d="M0 0 C30.03 0 60.06 0 91 0 C89 11 89 11 88 12 C86.0056827 12.09405142 84.00800457 12.11743249 82.01147461 12.11352539 C80.73022202 12.11344986 79.44896942 12.11337433 78.12889099 12.11329651 C76.72004152 12.10818909 75.31119244 12.10297309 73.90234375 12.09765625 C72.46887766 12.09579202 71.03541093 12.09436814 69.60194397 12.09336853 C65.82240043 12.08954372 62.0428951 12.07971377 58.2633667 12.06866455 C54.40930702 12.05844963 50.55524118 12.05387074 46.70117188 12.04882812 C39.13409713 12.03809146 31.56705391 12.02101549 24 12 C23.67 12.66 23.34 13.32 23 14 C19.34924633 12.05073686 15.70529187 10.0890963 12.0625 8.125 C11.02158203 7.56941406 9.98066406 7.01382813 8.90820312 6.44140625 C7.91884766 5.90644531 6.92949219 5.37148437 5.91015625 4.8203125 C4.99371338 4.32805176 4.07727051 3.83579102 3.13305664 3.32861328 C1 2 1 2 0 0 Z " fill="#ADDB0A" transform="translate(17,189)"/>
<path d="M0 0 C36.63 0.495 36.63 0.495 74 1 C74 4.96 74 8.92 74 13 C46.94 13 19.88 13 -8 13 C-5.69 9.37 -3.38 5.74 -1 2 C-0.67 1.34 -0.34 0.68 0 0 Z " fill="#AEDC09" transform="translate(149,140)"/>
<path d="M0 0 C7.99924269 -0.25125015 15.99528343 -0.4518287 23.99744797 -0.56993389 C27.71564123 -0.62669788 31.43093621 -0.70328974 35.14746094 -0.82983398 C53.84823411 -1.45039284 68.3751806 -0.60915039 84 11 C84 11.33 84 11.66 84 12 C56.28 12 28.56 12 0 12 C0 8.04 0 4.08 0 0 Z " fill="#C7FD01" transform="translate(136,57)"/>
<path d="M0 0 C1.47256616 0.01306471 2.94516286 0.02302477 4.41777039 0.03001404 C8.28358776 0.05667282 12.14754802 0.12537062 16.01263428 0.20294189 C19.96064124 0.27470169 23.90894997 0.30655236 27.85742188 0.34179688 C35.59729671 0.41674962 43.33526037 0.53981742 51.07421875 0.68359375 C51.07421875 4.64359375 51.07421875 8.60359375 51.07421875 12.68359375 C26.98421875 12.68359375 2.89421875 12.68359375 -21.92578125 12.68359375 C-21.26578125 11.03359375 -20.60578125 9.38359375 -19.92578125 7.68359375 C-19.67355301 7.02507919 -19.42132477 6.36656464 -19.16145325 5.68809509 C-15.27225976 -1.74931186 -7.28684494 -0.18941589 0 0 Z " fill="#C7FE01" transform="translate(171.92578125,128.31640625)"/>
<path d="M0 0 C23.1 0 46.2 0 70 0 C69.34 1.65 68.68 3.3 68 5 C67.61023735 5.98777184 67.61023735 5.98777184 67.21260071 6.99549866 C66.02643957 9.22078755 65.03685466 10.48544894 63 12 C58.25992948 12.99605417 53.54706653 12.81487564 48.73046875 12.68359375 C47.32516449 12.67052814 45.91982821 12.6605685 44.51448059 12.65357971 C40.82617227 12.62692761 37.13981213 12.55823701 33.45227051 12.48065186 C29.68524531 12.40887676 25.91790338 12.37703822 22.15039062 12.34179688 C14.76593854 12.26685608 7.38349107 12.14379525 0 12 C0 8.04 0 4.08 0 0 Z " fill="#C7FE01" transform="translate(17,129)"/>
<path d="M0 0 C19.14 0.33 38.28 0.66 58 1 C58 4.96 58 8.92 58 13 C36.22 13 14.44 13 -8 13 C-5.69 9.37 -3.38 5.74 -1 2 C-0.67 1.34 -0.34 0.68 0 0 Z " fill="#AEDC09" transform="translate(165,116)"/>
<path d="M0 0 C30.03 0 60.06 0 91 0 C91 3.96 91 7.92 91 12 C72.19 12 53.38 12 34 12 C36 7 36 7 39 2 C26.13 2 13.26 2 0 2 C0 1.34 0 0.68 0 0 Z " fill="#C7FE01" transform="translate(132,105)"/>
<path d="M0 0 C23.1 0 46.2 0 70 0 C67.24041805 2.75958195 65.32670788 4.03757497 61.921875 5.77734375 C60.92542969 6.29103516 59.92898437 6.80472656 58.90234375 7.33398438 C57.86207031 7.86314453 56.82179687 8.39230469 55.75 8.9375 C53.70247639 9.98701682 51.65558598 11.03777002 49.609375 12.08984375 C48.63677734 12.58468262 47.66417969 13.07952148 46.66210938 13.58935547 C44.40708106 14.78428885 42.28747552 16.06744554 40.140625 17.44140625 C36.3343804 19.33032614 35.05981741 18.98961959 31 18 C28.11914062 16.7565918 28.11914062 16.7565918 25.15625 15.19921875 C24.07472656 14.63396484 22.99320313 14.06871094 21.87890625 13.48632812 C20.76386719 12.89271484 19.64882812 12.29910156 18.5 11.6875 C17.38496094 11.10548828 16.26992187 10.52347656 15.12109375 9.92382812 C4.49716652 4.33328716 4.49716652 4.33328716 0 1 C0 0.67 0 0.34 0 0 Z " fill="#C6FC01" transform="translate(85,225)"/>
<path d="M0 0 C1.35049438 0.70805786 1.35049438 0.70805786 2.72827148 1.43041992 C3.72407227 1.95055664 4.71987305 2.47069336 5.74584961 3.0065918 C6.77000977 3.55250977 7.79416992 4.09842773 8.84936523 4.66088867 C9.87739258 5.19520508 10.90541992 5.72952148 11.96459961 6.2800293 C16.88925786 8.87481034 20.88868726 11.32984629 25.28686523 14.84838867 C4.16686523 14.84838867 -16.95313477 14.84838867 -38.71313477 14.84838867 C-33.17590724 10.41860665 -27.52548189 7.32396086 -21.27563477 4.03588867 C-20.15608398 3.42551758 -19.0365332 2.81514648 -17.88305664 2.1862793 C-16.79702148 1.61458008 -15.71098633 1.04288086 -14.59204102 0.45385742 C-13.60792236 -0.07054932 -12.62380371 -0.59495605 -11.60986328 -1.13525391 C-7.19566097 -2.68403808 -4.21674381 -1.78982998 0 0 Z " fill="#ACDA0A" transform="translate(126.713134765625,18.151611328125)"/>
<path d="M0 0 C8.58 0 17.16 0 26 0 C17.25 7 17.25 7 12.1875 7 C7.76249863 5.61176428 3.96004346 3.38482617 0 1 C0 0.67 0 0.34 0 0 Z " fill="#A8D50A" transform="translate(107,237)"/>
<path d="M0 0 C2.875 1.5 2.875 1.5 5 3 C5 3.33 5 3.66 5 4 C-0.28 4 -5.56 4 -11 4 C-10 1 -10 1 -8.3125 -0.25 C-5.15812711 -1.27303986 -3.18985018 -0.84628678 0 0 Z " fill="#BFF404" transform="translate(124,17)"/>
</svg>
